<?xml version="1.0" encoding="UTF-8"?>
<svg xmlns="http://www.w3.org/2000/svg" xmlns:xlink="http://www.w3.org/1999/xlink" width="16px" height="16px" viewBox="0 0 16 12" version="1.1">
<g id="surface1">
<path style=" stroke:none;fill-rule:nonzero;fill:rgb(0%,0%,0%);fill-opacity:1;" d="M 9.652344 5.355469 C 9.699219 5.582031 9.730469 5.808594 9.730469 6.105469 C 9.730469 8.675781 7.890625 10.5 5.121094 10.5 C 2.46875 10.5 0.320312 8.488281 0.320312 6 C 0.320312 3.511719 2.46875 1.5 5.121094 1.5 C 6.417969 1.5 7.496094 1.941406 8.335938 2.679688 L 7.03125 3.851562 C 6.679688 3.53125 6.054688 3.15625 5.121094 3.15625 C 3.484375 3.15625 2.148438 4.429688 2.148438 6 C 2.148438 7.570312 3.484375 8.84375 5.121094 8.84375 C 7.019531 8.84375 7.734375 7.558594 7.84375 6.902344 L 5.121094 6.902344 L 5.121094 5.355469 Z M 14.285156 5.507812 L 14.285156 4.199219 L 12.886719 4.199219 L 12.886719 5.507812 L 11.492188 5.507812 L 11.492188 6.820312 L 12.886719 6.820312 L 12.886719 8.125 L 14.285156 8.125 L 14.285156 6.820312 L 15.679688 6.820312 L 15.679688 5.507812 Z M 14.285156 5.507812 "/>
</g>
</svg>
